<svg width="100" height="100" viewBox="0 0 100 100" fill="none" xmlns="http://www.w3.org/2000/svg">
<path d="M87.5 8.33337L79.1667 16.6667M47.4583 48.375L64.5833 31.25M64.5833 31.25L77.0833 43.75L91.6667 29.1667L79.1667 16.6667M64.5833 31.25L79.1667 16.6667M47.4583 48.375C49.6098 50.4978 51.32 53.0252 52.4907 55.8117C53.6613 58.5981 54.2692 61.5886 54.2793 64.611C54.2894 67.6334 53.7016 70.6279 52.5497 73.4221C51.3977 76.2164 49.7044 78.7552 47.5673 80.8923C45.4301 83.0295 42.8914 84.7227 40.0971 85.8747C37.3029 87.0266 34.3083 87.6144 31.286 87.6043C28.2636 87.5942 25.2731 86.9863 22.4866 85.8157C19.7002 84.6451 17.1728 82.9348 15.05 80.7834C10.8756 76.4612 8.56569 70.6724 8.6179 64.6638C8.67011 58.6551 11.0802 52.9073 15.3292 48.6584C19.5781 44.4094 25.3259 41.9993 31.3346 41.9471C37.3432 41.8949 43.132 44.2048 47.4542 48.3792L47.4583 48.375Z" stroke="#6DDB86" stroke-width="8.33333" stroke-linecap="round" stroke-linejoin="round"/>
</svg>
