<svg width="100" height="100" viewBox="0 0 100 100" fill="none" xmlns="http://www.w3.org/2000/svg">
<path d="M79.1667 45.8334H20.8333C16.231 45.8334 12.5 49.5643 12.5 54.1667V83.3334C12.5 87.9357 16.231 91.6667 20.8333 91.6667H79.1667C83.769 91.6667 87.5 87.9357 87.5 83.3334V54.1667C87.5 49.5643 83.769 45.8334 79.1667 45.8334Z" stroke="#D870E9" stroke-width="8.33333" stroke-linecap="round" stroke-linejoin="round"/>
<path d="M29.1667 45.8334V29.1667C29.1667 23.6414 31.3616 18.3423 35.2686 14.4353C39.1756 10.5283 44.4747 8.33337 50 8.33337C55.5253 8.33337 60.8244 10.5283 64.7314 14.4353C68.6384 18.3423 70.8333 23.6414 70.8333 29.1667V45.8334" stroke="#D870E9" stroke-width="8.33333" stroke-linecap="round" stroke-linejoin="round"/>
</svg>
