<svg width="204" height="166" viewBox="0 0 204 166" fill="none" xmlns="http://www.w3.org/2000/svg">
<path d="M51.3137 87.7525L90.58 48.4863L84.1975 42.2425L51.3137 75.1263L34.6638 58.4762L28.42 64.72L51.3137 87.7525ZM59.5 118C51.915 118 44.7463 116.543 37.9938 113.629C31.2413 110.716 25.3444 106.738 20.3031 101.697C15.2619 96.6556 11.2844 90.7588 8.37062 84.0063C5.45687 77.2538 4 70.085 4 62.5C4 54.8225 5.45687 47.6075 8.37062 40.855C11.2844 34.1025 15.2619 28.2288 20.3031 23.2338C25.3444 18.2388 31.2413 14.2844 37.9938 11.3706C44.7463 8.45687 51.915 7 59.5 7C67.1775 7 74.3925 8.45687 81.145 11.3706C87.8975 14.2844 93.7713 18.2388 98.7663 23.2338C103.761 28.2288 107.716 34.1025 110.629 40.855C113.543 47.6075 115 54.8225 115 62.5C115 70.085 113.543 77.2538 110.629 84.0063C107.716 90.7588 103.761 96.6556 98.7663 101.697C93.7713 106.738 87.8975 110.716 81.145 113.629C74.3925 116.543 67.1775 118 59.5 118ZM59.5 109.675C72.635 109.675 83.7813 105.073 92.9388 95.8694C102.096 86.6656 106.675 75.5425 106.675 62.5C106.675 49.365 102.096 38.2188 92.9388 29.0613C83.7813 19.9038 72.635 15.325 59.5 15.325C46.4575 15.325 35.3344 19.9038 26.1306 29.0613C16.9269 38.2188 12.325 49.365 12.325 62.5C12.325 75.5425 16.9269 86.6656 26.1306 95.8694C35.3344 105.073 46.4575 109.675 59.5 109.675Z" fill="#6DDB86"/>
<path d="M126.131 161.592C123.293 161.682 120.849 160.765 118.8 158.841C116.75 156.917 115.681 154.536 115.591 151.698C115.501 148.86 116.419 146.416 118.342 144.366C120.266 142.317 122.648 141.247 125.486 141.157C128.324 141.068 130.768 141.985 132.817 143.909C134.867 145.833 135.936 148.214 136.026 151.052C136.116 153.89 135.199 156.334 133.275 158.384C131.351 160.433 128.97 161.503 126.131 161.592V161.592ZM182.895 159.799C180.057 159.889 177.613 158.971 175.564 157.048C173.514 155.124 172.445 152.742 172.355 149.904C172.265 147.066 173.182 144.622 175.106 142.573C177.03 140.523 179.412 139.454 182.25 139.364C185.088 139.274 187.532 140.191 189.581 142.115C191.631 144.039 192.7 146.42 192.79 149.259C192.88 152.097 191.963 154.541 190.039 156.59C188.115 158.64 185.734 159.709 182.895 159.799ZM115.793 68.1651L132.425 100.027L173.295 98.736L190.012 65.82L115.793 68.1651ZM111.266 59.785L194.851 57.144C197.027 57.0752 198.714 58.0163 199.912 59.9672C201.11 61.918 201.173 63.9048 200.101 65.9274L182.032 101.017C181.049 102.847 179.746 104.333 178.125 105.473C176.504 106.613 174.7 107.215 172.713 107.277L129.714 108.636L122.233 123.646L191.911 121.444L192.18 129.959L123.78 132.12C119.806 132.246 116.902 131.012 115.069 128.418C113.235 125.824 113.164 122.843 114.857 119.475L123.41 102.443L100.396 57.4295L89.3271 57.7792L89.058 49.2646L105.662 48.74L111.266 59.785ZM132.425 100.027L173.295 98.736L132.425 100.027Z" fill="#D870E9"/>
</svg>
